<svg id="Livello_1" data-name="Livello 1" xmlns="http://www.w3.org/2000/svg" viewBox="0 0 33 31.72"><defs><style>.cls-1{fill:#fff;}</style></defs><title>shop</title><path class="cls-1" d="M29.3,15.82A3.7,3.7,0,0,1,26.1,14a3.7,3.7,0,0,1-6.4,0,3.7,3.7,0,0,1-6.4,0,3.7,3.7,0,0,1-6.4,0A3.7,3.7,0,0,1,0,12.12V7.2A.52.52,0,0,1,0,7L2.4,1A.5.5,0,0,1,2.86.64H30.14A.5.5,0,0,1,30.6,1L33,7a.49.49,0,0,1,0,.18v4.92A3.7,3.7,0,0,1,29.3,15.82Zm-3.2-4.2a.5.5,0,0,1,.5.5,2.7,2.7,0,0,0,5.4,0V7.29L29.8,1.64H3.2L1,7.29v4.83a2.7,2.7,0,0,0,5.4,0,.5.5,0,0,1,1,0,2.7,2.7,0,0,0,5.4,0,.5.5,0,0,1,1,0,2.7,2.7,0,0,0,5.4,0,.5.5,0,0,1,1,0,2.7,2.7,0,0,0,5.4,0A.5.5,0,0,1,26.1,11.62Z" transform="translate(0 -0.64)"/><path class="cls-1" d="M28.39,32.36H4.61a2.18,2.18,0,0,1-2.17-2.17V19.65a.5.5,0,0,1,1,0V30.19a1.18,1.18,0,0,0,1.17,1.17H28.39a1.18,1.18,0,0,0,1.17-1.17V19.65a.5.5,0,0,1,1,0V30.19A2.18,2.18,0,0,1,28.39,32.36Z" transform="translate(0 -0.64)"/><path class="cls-1" d="M14.43,32.16H7.19a.5.5,0,0,1-.5-.5V19.31a.5.5,0,0,1,.5-.5h7.24a.5.5,0,0,1,.5.5V31.66A.5.5,0,0,1,14.43,32.16Zm-6.74-1h6.24V19.81H7.69Z" transform="translate(0 -0.64)"/><path class="cls-1" d="M25.81,26.38H17.24a.5.5,0,0,1-.5-.5V19.31a.5.5,0,0,1,.5-.5h8.57a.5.5,0,0,1,.5.5v6.57A.5.5,0,0,1,25.81,26.38Zm-8.07-1H25.3V19.81H17.74Z" transform="translate(0 -0.64)"/></svg>